<svg width="14" height="16" viewBox="0 0 14 16" fill="none" xmlns="http://www.w3.org/2000/svg">
<path d="M1.35143 14.5669C-0.474507 12.6829 -0.440476 9.64472 1.39474 7.76754L7.94974 1.06251C9.33461 -0.354109 11.5857 -0.354234 12.9707 1.06251C14.3423 2.46545 14.3439 4.72904 12.9707 6.13363L7.25668 11.9727C6.32371 12.927 4.7994 12.9137 3.88224 11.9416C2.99865 11.005 3.02699 9.52053 3.92762 8.59928L8.41958 4.0107C8.61277 3.81339 8.92933 3.81001 9.12665 4.00317L9.84105 4.70251C10.0384 4.8957 10.0417 5.21226 9.84858 5.40957L5.35708 9.99772C5.20296 10.1554 5.19346 10.4173 5.33683 10.5693C5.47346 10.7142 5.68824 10.7166 5.82708 10.5745L11.5411 4.73542C12.154 4.10848 12.154 3.08776 11.5408 2.46048C10.9411 1.84714 9.97961 1.84683 9.37971 2.46048L2.82468 9.16547C1.73834 10.2767 1.72159 12.0755 2.78746 13.1752C3.85027 14.2719 5.56824 14.2733 6.63302 13.1842L12.0099 7.68422C12.2029 7.48676 12.5195 7.48319 12.717 7.67622L13.4319 8.3751C13.6293 8.56813 13.6329 8.88469 13.4399 9.08216L8.06299 14.5821C6.20124 16.4864 3.18977 16.4638 1.35143 14.5669V14.5669Z" fill="#374455"/>
</svg>
