<svg width="21" height="20" viewBox="0 0 21 20" fill="none" xmlns="http://www.w3.org/2000/svg">
<path d="M20.5857 17.2913L16.5216 13.3971C16.3382 13.2214 16.0895 13.1237 15.8286 13.1237H15.1642C16.2892 11.7449 16.9578 10.0107 16.9578 8.12421C16.9578 3.63636 13.1626 0 8.47888 0C3.79511 0 0 3.63636 0 8.12421C0 12.612 3.79511 16.2484 8.47888 16.2484C10.4478 16.2484 12.2577 15.6079 13.6967 14.5298V15.1665C13.6967 15.4165 13.7986 15.6547 13.982 15.8305L18.0462 19.7246C18.4293 20.0918 19.0489 20.0918 19.4281 19.7246L20.5817 18.6193C20.9648 18.2521 20.9648 17.6584 20.5857 17.2913ZM8.47888 13.1237C5.59688 13.1237 3.26111 10.8896 3.26111 8.12421C3.26111 5.36276 5.5928 3.12469 8.47888 3.12469C11.3609 3.12469 13.6967 5.35885 13.6967 8.12421C13.6967 10.8857 11.365 13.1237 8.47888 13.1237Z" fill="white"/>
</svg>
